<svg width="24" height="24" viewBox="0 0 40 40" fill="none" xmlns="http://www.w3.org/2000/svg"><path d="M3.98535 20.4806C3.98535 26.2867 6.89224 27.5062 9.8835 26.8005C12.8748 26.0949 17.1852 25.8035 20.0001 25.8035C22.8149 25.8035 27.1331 26.0949 30.1167 26.8005C33.1079 27.5062 36.0148 26.2867 36.0148 20.4806C36.0148 14.6744 33.1079 13.4549 30.1167 14.1606C27.1254 14.8662 22.8149 15.1577 20.0001 15.1577C17.1852 15.1577 12.8671 14.8662 9.8835 14.1606C6.89991 13.4549 3.98535 14.6744 3.98535 20.4806Z" stroke="#343131" stroke-miterlimit="10"></path><path d="M26.458 17.5977H13.5343C11.9415 17.5977 10.6504 18.8888 10.6504 20.4815C10.6504 22.0743 11.9415 23.3654 13.5343 23.3654H26.458C28.0508 23.3654 29.3419 22.0743 29.3419 20.4815C29.3419 18.8888 28.0508 17.5977 26.458 17.5977Z" stroke="#343131" stroke-miterlimit="10"></path></svg>