<svg width="24" height="24" viewBox="0 0 40 40" fill="none" xmlns="http://www.w3.org/2000/svg"><path d="M19.4347 36.6583C19.9451 36.6583 20.5618 36.318 20.5618 35.5311C20.5618 34.7442 20.5618 26.3222 20.5618 26.3222C20.5618 26.3222 27.0414 22.3736 28.5372 18.1484C29.8132 14.5471 29.1965 10.1022 29.1327 9.01756C29.076 8.03216 28.9554 6.59306 29.4659 6.12517C30.0826 5.9763 30.5434 5.41625 30.5434 4.74987C30.5434 3.97006 29.9125 3.33203 29.1327 3.33203H19.4418H9.75084C8.96395 3.33203 8.33301 3.96297 8.33301 4.74987C8.33301 5.41625 8.7938 5.96921 9.41056 6.12517C9.92098 6.59306 9.80047 8.02507 9.74376 9.01756C9.67995 10.1022 9.06319 14.5471 10.3392 18.1555C11.8351 22.3878 18.3146 26.3293 18.3146 26.3293V35.5382C18.3146 36.3251 18.9313 36.6654 19.4418 36.6654L19.4347 36.6583Z" stroke="#343131" stroke-linecap="round" stroke-linejoin="round"></path></svg>