<svg width="24" height="24" viewBox="0 0 40 40" fill="none" xmlns="http://www.w3.org/2000/svg"><path d="M3.94043 19.2636C3.94043 20.6394 4.22367 23.7307 6.11733 25.0903C8.011 26.4498 12.3001 25.6972 13.9267 25.503C15.5533 25.3088 15.3672 26.903 15.5937 28.0603C15.8203 29.2175 16.8643 29.5898 17.3741 29.5898H19.9961C19.9961 29.5898 22.1083 29.5898 22.6181 29.5898C23.1279 29.5898 24.1719 29.2256 24.3985 28.0603C24.6251 26.8949 24.4389 25.3007 26.0655 25.503C27.6921 25.7053 31.9731 26.4498 33.8749 25.0903C35.7766 23.7307 36.0518 20.6394 36.0518 19.2636C36.0518 17.8879 35.7685 14.7965 33.8749 13.437C31.9812 12.0774 27.6921 12.83 26.0655 13.0243C24.4389 13.2185 24.6251 11.6242 24.3985 10.467C24.1719 9.30976 23.1279 8.9375 22.6181 8.9375H19.9961C19.9961 8.9375 17.8839 8.9375 17.3741 8.9375C16.8643 8.9375 15.8203 9.30167 15.5937 10.467C15.3672 11.6323 15.5533 13.2266 13.9267 13.0243C12.3001 12.8219 8.01909 12.0774 6.11733 13.437C4.21558 14.7965 3.94043 17.8879 3.94043 19.2636Z" stroke="#343131" stroke-miterlimit="10"></path><path d="M25.4658 16.5039H14.5327C13.1382 16.5039 12.0078 17.6343 12.0078 19.0288V19.4901C12.0078 20.8845 13.1382 22.015 14.5327 22.015H25.4658C26.8602 22.015 27.9907 20.8845 27.9907 19.4901V19.0288C27.9907 17.6343 26.8602 16.5039 25.4658 16.5039Z" stroke="#343131" stroke-miterlimit="10"></path></svg>