<svg xmlns="http://www.w3.org/2000/svg" width="25" height="25" viewBox="0 0 25 25" fill="none">
<path d="M16.8273 6.00882L13.8273 6.00899C13.275 6.00902 12.8273 6.45677 12.8274 7.00905L12.8275 10.009L16.8275 10.0088C16.9412 10.0063 17.0492 10.0592 17.1168 10.1507C17.1844 10.2422 17.2034 10.3608 17.1676 10.4688L16.4277 12.6688C16.3595 12.8707 16.1708 13.0073 15.9577 13.0089L12.8277 13.009L12.8281 20.509C12.8282 20.7851 12.6043 21.0091 12.3282 21.0091L9.82818 21.0092C9.55204 21.0092 9.32816 20.7853 9.32815 20.5092L9.32772 13.0092L7.82772 13.0093C7.55158 13.0093 7.32771 12.7855 7.32769 12.5094L7.32758 10.5094C7.32756 10.2333 7.55141 10.0093 7.82755 10.0093L9.32755 10.0092L9.32738 7.00925C9.32725 4.80011 11.118 3.00914 13.3271 3.00902L16.8271 3.00882C17.1032 3.0088 17.3272 3.23265 17.3272 3.50879L17.3273 5.50879C17.3273 5.78493 17.1034 6.0088 16.8273 6.00882Z" fill="white" fill-opacity="0.7"/>
</svg>