<svg xmlns="http://www.w3.org/2000/svg" width="25" height="25" viewBox="0 0 25 25" fill="none">
<path fill-rule="evenodd" clip-rule="evenodd" d="M16.3291 3.00885L8.3291 3.0093C5.56768 3.00946 3.32923 5.24817 3.32939 8.00959L3.32984 16.0096C3.33 18.771 5.56871 21.0095 8.33013 21.0093L16.3301 21.0088C19.0915 21.0087 21.33 18.77 21.3298 16.0086L21.3294 8.00856C21.3292 5.24714 19.0905 3.00869 16.3291 3.00885ZM19.5798 16.0087C19.5744 17.8013 18.1226 19.2532 16.33 19.2588L8.33003 19.2593C6.53738 19.2539 5.08544 17.8021 5.07984 16.0095L5.07939 8.00949C5.08477 6.21684 6.53655 4.7649 8.3292 4.7593L16.3292 4.75885C18.1218 4.76423 19.5738 6.21601 19.5794 8.00866L19.5798 16.0087ZM17.0794 8.2588C17.6317 8.25877 18.0794 7.81103 18.0793 7.25875C18.0793 6.70647 17.6316 6.25877 17.0793 6.2588C16.527 6.25884 16.0793 6.70658 16.0793 7.25886C16.0794 7.81114 16.5271 8.25884 17.0794 8.2588ZM12.3294 7.50908C9.84408 7.50922 7.82947 9.52405 7.82962 12.0093C7.82976 14.4946 9.84459 16.5092 12.3299 16.5091C14.8152 16.5089 16.8298 14.4941 16.8296 12.0088C16.8322 10.8145 16.3589 9.66841 15.5143 8.82397C14.6698 7.97953 13.5237 7.50635 12.3294 7.50908ZM9.57962 12.0092C9.5797 13.528 10.811 14.7592 12.3298 14.7591C13.8486 14.759 15.0797 13.5277 15.0796 12.0089C15.0795 10.4901 13.8483 9.25899 12.3295 9.25908C10.8107 9.25916 9.57953 10.4904 9.57962 12.0092Z" fill="white" fill-opacity="0.7"/>
</svg>