<svg xmlns="http://www.w3.org/2000/svg" width="25" height="25" viewBox="0 0 25 25" fill="none">
  <path fill-rule="evenodd" clip-rule="evenodd" d="M5.33398 3.00947L19.334 3.00867C20.4386 3.00861 21.334 3.90399 21.3341 5.00856L21.3349 19.0086C21.335 20.1132 20.4396 21.0086 19.335 21.0087L5.33501 21.0095C4.23044 21.0095 3.33496 20.1142 3.3349 19.0096L3.3341 5.00959C3.33404 3.90502 4.22941 3.00954 5.33398 3.00947ZM8.33484 18.0093C8.61098 18.0093 8.83483 17.7854 8.83481 17.5093L8.83441 10.5093C8.8344 10.2332 8.61052 10.0093 8.33438 10.0093L6.83438 10.0094C6.55824 10.0094 6.3344 10.2333 6.33441 10.5094L6.33481 17.5094C6.33483 17.7855 6.5587 18.0094 6.83484 18.0094L8.33484 18.0093ZM7.58433 9.00934C6.7559 9.00939 6.08429 8.33786 6.08424 7.50943C6.08419 6.681 6.75573 6.00939 7.58416 6.00934C8.41259 6.0093 9.08419 6.68083 9.08424 7.50926C9.08429 8.33769 8.41276 9.0093 7.58433 9.00934ZM17.8348 18.0088C18.1109 18.0087 18.3348 17.7848 18.3348 17.5087L18.3346 12.9087C18.367 11.3195 17.192 9.96331 15.6144 9.76888C14.5114 9.6682 13.4427 10.1834 12.8344 11.109L12.8344 10.509C12.8344 10.2329 12.6105 10.0091 12.3344 10.0091L10.8344 10.0092C10.5583 10.0092 10.3344 10.2331 10.3344 10.5092L10.3348 17.5092C10.3348 17.7853 10.5587 18.0092 10.8348 18.0092L12.3348 18.0091C12.6109 18.0091 12.8348 17.7851 12.8348 17.509L12.8346 13.759C12.8346 12.9306 13.5061 12.259 14.3345 12.259C15.1629 12.2589 15.8346 12.9305 15.8346 13.7589L15.8348 17.5089C15.8348 17.785 16.0587 18.0089 16.3348 18.0088L17.8348 18.0088Z" fill="white" fill-opacity="0.7"/>
</svg>