<svg xmlns="http://www.w3.org/2000/svg" width="48" height="25" viewBox="0 0 48 25" fill="none">
  <rect y="0.065918" width="48" height="24" rx="2" fill="#F79E1B"/>
  <path fill-rule="evenodd" clip-rule="evenodd" d="M29.8063 21.0659C34.8838 21.0659 38.9999 17.0365 38.9999 12.0659C38.9999 7.09536 34.8838 3.06592 29.8063 3.06592C24.7289 3.06592 20.6128 7.09536 20.6128 12.0659C20.6128 17.0365 24.7289 21.0659 29.8063 21.0659Z" fill="white"/>
  <path fill-rule="evenodd" clip-rule="evenodd" d="M18.1935 21.0659C23.271 21.0659 27.3871 17.0365 27.3871 12.0659C27.3871 7.09536 23.271 3.06592 18.1935 3.06592C13.1161 3.06592 9 7.09536 9 12.0659C9 17.0365 13.1161 21.0659 18.1935 21.0659Z" fill="#EB001B"/>
  <path fill-rule="evenodd" clip-rule="evenodd" d="M23.9997 5.08789C21.9327 6.73822 20.6128 9.25117 20.6128 12.0659C20.6128 14.8806 21.9327 17.3936 23.9997 19.0439C26.0667 17.3936 27.3866 14.8806 27.3866 12.0659C27.3866 9.25117 26.0667 6.73822 23.9997 5.08789Z" fill="#FF5F00"/>
</svg>