<svg xmlns="http://www.w3.org/2000/svg" width="25" height="25" viewBox="0 0 25 25" fill="none">
<path d="M12.8224 2.94604C7.85188 2.94604 3.82227 6.97554 3.82227 11.9461C3.82227 16.9169 7.85188 20.946 12.8224 20.946C17.7935 20.946 21.8227 16.9169 21.8227 11.9461C21.8227 6.97587 17.7935 2.94647 12.8223 2.94647L12.8224 2.94604ZM16.9498 15.9267C16.7886 16.1911 16.4426 16.2749 16.1782 16.1126C14.065 14.8219 11.4048 14.5295 8.27199 15.2453C7.9701 15.3141 7.66918 15.1249 7.60039 14.8229C7.53129 14.5209 7.71969 14.22 8.02233 14.1512C11.4507 13.3676 14.3915 13.7052 16.7639 15.155C17.0283 15.3173 17.1121 15.6623 16.9498 15.9267ZM18.0514 13.4758C17.8483 13.8062 17.4163 13.9105 17.0863 13.7074C14.6671 12.22 10.9794 11.7894 8.11788 12.658C7.74677 12.7701 7.35482 12.5609 7.24218 12.1905C7.13041 11.8194 7.33966 11.4282 7.71012 11.3153C10.9787 10.3236 15.0422 10.804 17.8204 12.5112C18.1503 12.7143 18.2546 13.1464 18.0514 13.4759V13.4758ZM18.146 10.9239C15.2453 9.201 10.4595 9.04258 7.69003 9.88314C7.2453 10.018 6.77499 9.76696 6.64022 9.32223C6.50545 8.87729 6.75629 8.40731 7.20134 8.27211C10.3805 7.30699 15.6655 7.49346 19.0052 9.47603C19.406 9.71343 19.5372 10.2301 19.2996 10.6295C19.0632 11.0296 18.5452 11.1614 18.1465 10.9239H18.146Z" fill="white" fill-opacity="0.7"/>
</svg>