<svg xmlns="http://www.w3.org/2000/svg" width="25" height="25" viewBox="0 0 25 25" fill="none">
<path d="M21.3048 6.72596C20.8405 7.34551 20.2791 7.88595 19.6424 8.32642C19.6424 8.48825 19.6424 8.65008 19.6425 8.82091C19.6477 11.7598 18.474 14.5778 16.3844 16.6433C14.2947 18.7089 11.464 19.849 8.52684 19.8082C6.82878 19.814 5.15243 19.4264 3.62914 18.6757C3.547 18.6398 3.49402 18.5586 3.49433 18.4689L3.49432 18.37C3.49432 18.2409 3.59892 18.1363 3.72796 18.1363C5.39711 18.0811 7.00667 17.5023 8.32894 16.4817C6.81812 16.4513 5.45873 15.5564 4.83306 14.1802C4.80147 14.1051 4.81129 14.0188 4.85902 13.9527C4.90674 13.8866 4.98545 13.8502 5.0667 13.8566C5.52587 13.9027 5.98963 13.8599 6.43264 13.7306C4.76481 13.3845 3.51155 12 3.3321 10.3053C3.32573 10.224 3.36215 10.1453 3.42823 10.0975C3.4943 10.0498 3.58047 10.0399 3.65561 10.0716C4.10318 10.269 4.58634 10.373 5.07549 10.3771C3.61403 9.41803 2.9827 7.59366 3.53854 5.9358C3.59592 5.7747 3.73379 5.65569 3.90147 5.6225C4.06915 5.5893 4.24194 5.64682 4.3563 5.77392C6.32849 7.87267 9.03821 9.12322 11.9141 9.26189C11.8405 8.96795 11.8042 8.66586 11.8062 8.36282C11.833 6.77382 12.8162 5.35826 14.2953 4.77883C15.7744 4.19942 17.4568 4.57081 18.555 5.71916C19.3034 5.57653 20.027 5.32508 20.7026 4.97281C20.7521 4.9419 20.8149 4.9419 20.8644 4.9728C20.8953 5.02231 20.8953 5.0851 20.8644 5.13463C20.5372 5.88412 19.9843 6.51276 19.2829 6.93287C19.8971 6.8616 20.5005 6.71668 21.0802 6.50121C21.129 6.46799 21.1931 6.46799 21.2419 6.5012C21.2828 6.5199 21.3134 6.55567 21.3255 6.59898C21.3376 6.64229 21.33 6.68874 21.3048 6.72596Z" fill="white" fill-opacity="0.7"/>
</svg>