<svg xmlns="http://www.w3.org/2000/svg" width="48" height="25" viewBox="0 0 48 25" fill="none">
  <rect y="0.065918" width="48" height="24" rx="2" fill="#1A1F71"/>
  <path fill-rule="evenodd" clip-rule="evenodd" d="M32.1666 7.51389C31.5893 7.29797 30.6847 7.06592 29.5546 7.06592C26.6748 7.06592 24.6456 8.51166 24.6285 10.5823C24.6128 12.1145 26.0767 12.9677 27.1826 13.4784C28.3167 13.9998 28.6985 14.3332 28.6925 14.7994C28.6853 15.5138 27.7871 15.84 26.9494 15.84C25.7826 15.84 25.1632 15.6793 24.2058 15.2813L23.8299 15.1117L23.4209 17.4975C24.1024 17.7944 25.3603 18.0528 26.6676 18.0659C29.7316 18.0659 31.7209 16.6371 31.743 14.4253C31.7536 13.2129 30.9776 12.2902 29.2966 11.5304C28.2771 11.037 27.6534 10.7074 27.6603 10.2085C27.6603 9.7665 28.1877 9.2918 29.3285 9.2918C30.2829 9.27695 30.9725 9.48439 31.5102 9.70074L31.7719 9.82292L32.1666 7.51389ZM18.6827 17.9077L20.505 7.25175H23.4193L21.596 17.9077H18.6827ZM37.389 7.26217H39.6413L42 17.9105H39.2952C39.2952 17.9105 39.0283 16.687 38.9411 16.3142C38.7156 16.3142 37.7742 16.313 36.8894 16.3118L36.877 16.3118C36.0973 16.3108 35.3644 16.3099 35.2082 16.3099C35.095 16.598 34.5948 17.9105 34.5948 17.9105H31.5337L35.8621 8.14582C36.1694 7.45137 36.6909 7.26217 37.389 7.26217ZM36.0464 14.1303C36.2878 13.5165 37.2081 11.151 37.2081 11.151C37.1996 11.1649 37.2563 11.0182 37.3337 10.8179L37.3337 10.8178C37.4149 10.6077 37.5188 10.3387 37.5942 10.1342L37.7909 11.053C37.7909 11.053 38.3494 13.5962 38.4664 14.1303H36.0464ZM13.3849 14.5259L16.2378 7.2595H19.3249L14.7369 17.8947L11.6528 17.8989L9.04419 8.57882C10.8942 9.50192 12.5497 11.3464 13.0805 13.0492L13.3849 14.5259Z" fill="#F0F0F0"/>
  <path fill-rule="evenodd" clip-rule="evenodd" d="M10.7374 7.25244H6.03703L6 7.47388C9.65663 8.35668 12.0762 10.488 13.0804 13.0494L12.0583 8.15179C11.8821 7.47685 11.37 7.27577 10.7374 7.25244" fill="#F9A51A"/>
</svg>